<svg width="116" height="26" viewBox="0 0 116 26" fill="none" xmlns="http://www.w3.org/2000/svg">
<g filter="url(#filter0_d)">
<path fill-rule="evenodd" clip-rule="evenodd" d="M107.848 2.65853V17.4498H105.735V2.65853H101.978V1.01506H111.604V2.65853H107.848ZM99.7124 11.3572C99.3446 11.819 98.8828 12.1477 98.3272 12.3433C97.7715 12.539 97.1102 12.6368 96.3432 12.6368C95.9832 12.6368 95.5763 12.6133 95.1224 12.5664C94.6685 12.5194 94.2928 12.4646 93.9954 12.402V17.4498H91.8824V1.24984C92.4772 1.07766 93.0759 0.95636 93.6785 0.885926C94.2811 0.815491 94.9346 0.780273 95.6389 0.780273C96.578 0.780273 97.3763 0.8781 98.0337 1.07375C98.6911 1.2694 99.2232 1.59419 99.6302 2.0481C100.037 2.50201 100.335 3.10462 100.522 3.85593C100.71 4.60723 100.804 5.53853 100.804 6.64984C100.804 7.79245 100.714 8.74723 100.534 9.51419C100.354 10.2811 100.08 10.8955 99.7124 11.3572ZM98.515 4.5368C98.3976 3.97332 98.2137 3.52723 97.9632 3.19853C97.7128 2.86984 97.3959 2.63897 97.0124 2.50593C96.6289 2.37288 96.1711 2.30636 95.6389 2.30636H93.9954V10.9933H95.6389C96.1711 10.9933 96.6289 10.9268 97.0124 10.7938C97.3959 10.6607 97.7128 10.4298 97.9632 10.1011C98.2137 9.77245 98.3976 9.32636 98.515 8.76288C98.6324 8.1994 98.6911 7.49506 98.6911 6.64984C98.6911 5.80462 98.6324 5.10027 98.515 4.5368ZM86.5998 13.2238H81.9041L80.8476 17.4498H78.7346L82.7259 1.01506H85.778L89.7693 17.4498H87.6563L86.5998 13.2238ZM84.2989 3.36288H84.205L82.2563 11.5803H86.2476L84.2989 3.36288ZM74.1563 5.24114H74.0389L70.6345 15.3368H68.5215L65.1172 5.24114H64.9998L64.2954 17.4498H62.1824L63.1215 1.01506H65.7041L69.5311 12.2846H69.625L73.4519 1.01506H76.0345L76.9737 17.4498H74.8606L74.1563 5.24114ZM58.3789 15.9238C57.9406 16.5655 57.4124 17.0194 56.7941 17.2855C56.1759 17.5516 55.4676 17.6846 54.6693 17.6846C53.8711 17.6846 53.1628 17.5516 52.5445 17.2855C51.9263 17.0194 51.398 16.5655 50.9598 15.9238C50.5215 15.282 50.1889 14.4172 49.9619 13.3294C49.735 12.2416 49.6215 10.8759 49.6215 9.23245C49.6215 7.58897 49.735 6.22332 49.9619 5.13549C50.1889 4.04766 50.5215 3.18288 50.9598 2.54114C51.398 1.8994 51.9263 1.44549 52.5445 1.1794C53.1628 0.913317 53.8711 0.780273 54.6693 0.780273C55.4676 0.780273 56.1759 0.913317 56.7941 1.1794C57.4124 1.44549 57.9406 1.8994 58.3789 2.54114C58.8172 3.18288 59.1498 4.04766 59.3767 5.13549C59.6037 6.22332 59.7172 7.58897 59.7172 9.23245C59.7172 10.8759 59.6037 12.2416 59.3767 13.3294C59.1498 14.4172 58.8172 15.282 58.3789 15.9238ZM57.3576 5.75766C57.1932 4.84984 56.978 4.12984 56.7119 3.59766C56.4459 3.06549 56.1328 2.69766 55.7728 2.49419C55.4128 2.29071 55.045 2.18897 54.6693 2.18897C54.2937 2.18897 53.9258 2.29071 53.5658 2.49419C53.2059 2.69766 52.8928 3.06549 52.6267 3.59766C52.3606 4.12984 52.1454 4.84984 51.9811 5.75766C51.8167 6.66549 51.7345 7.82375 51.7345 9.23245C51.7345 10.6411 51.8167 11.7994 51.9811 12.7072C52.1454 13.6151 52.3606 14.3351 52.6267 14.8672C52.8928 15.3994 53.2059 15.7672 53.5658 15.9707C53.9258 16.1742 54.2937 16.2759 54.6693 16.2759C55.045 16.2759 55.4128 16.1742 55.7728 15.9707C56.1328 15.7672 56.4459 15.3994 56.7119 14.8672C56.978 14.3351 57.1932 13.6151 57.3576 12.7072C57.5219 11.7994 57.6041 10.6411 57.6041 9.23245C57.6041 7.82375 57.5219 6.66549 57.3576 5.75766ZM44.6911 9.9368H39.7606V17.4498H37.6476V1.01506H39.7606V8.29332H44.6911V1.01506H46.8041V17.4498H44.6911V9.9368ZM33.5397 17.4498L30.6049 10.4064L27.6701 17.4498H25.5571L29.0788 8.99766L25.9092 1.01506H28.0223L30.6049 7.58897L33.1875 1.01506H35.3005L32.131 8.99766L35.6527 17.4498H33.5397ZM16.2832 1.01506H24.2658V2.65853H18.3962V8.05853H23.5614V9.70201H18.3962V15.8064H24.2658V17.4498H16.2832V1.01506ZM10.6484 17.4498H8.53533V2.65853H4.77881V1.01506H14.4049V2.65853H10.6484V17.4498Z" fill="white"/>
</g>
<defs>
<filter id="filter0_d" x="0" y="0" width="116" height="26" filterUnits="userSpaceOnUse" color-interpolation-filters="sRGB">
<feFlood flood-opacity="0" result="BackgroundImageFix"/>
<feColorMatrix in="SourceAlpha" type="matrix" values="0 0 0 0 0 0 0 0 0 0 0 0 0 0 0 0 0 0 127 0"/>
<feOffset dy="4"/>
<feGaussianBlur stdDeviation="2"/>
<feColorMatrix type="matrix" values="0 0 0 0 0 0 0 0 0 0 0 0 0 0 0 0 0 0 0.25 0"/>
<feBlend mode="normal" in2="BackgroundImageFix" result="effect1_dropShadow"/>
<feBlend mode="normal" in="SourceGraphic" in2="effect1_dropShadow" result="shape"/>
</filter>
</defs>
</svg>
